<?xml version="1.0" encoding="utf-8"?><svg viewBox="0 0 209 184" xmlns="http://www.w3.org/2000/svg" xmlns:xlink="http://www.w3.org/1999/xlink"><style>:root>svg{display:none}:root>svg:target{display:block}</style><svg viewBox="0 0 172 171" id="bonus1" xmlns="http://www.w3.org/2000/svg"><defs><path id="aa" d="M272.465 1113.848a3.59 3.59 0 01-2.056-.644 3.598 3.598 0 01-1.55-2.962V955.93c0-1.258.66-2.433 1.741-3.084 1.287-.78 31.974-18.764 82.118-.545.014-.009.03-.014.045-.02 38.84-19.642 82.955-.9 84.814-.092a3.607 3.607 0 012.171 3.31v154.743a3.599 3.599 0 01-1.634 3.017 3.604 3.604 0 01-3.42.287c-.332-.142-34.128-14.422-78.175.123a3.658 3.658 0 01-2.126.041c-45.222-12.982-80.315-.218-80.665-.089a3.58 3.58 0 01-1.263.227zm40.45-13.238c12.307 0 26.722 1.478 42.4 5.858 36.593-11.769 65.861-5.027 77.217-1.377v-147.13c-9.138-3.39-45.373-14.989-76.51.755-.09.046-.182.087-.274.123v131.465a3.608 3.608 0 11-7.216 0V958.471c-39.263-13.69-65.634-3.57-72.459-.34v147.198c6.657-1.858 19.704-4.719 36.841-4.719z"/><path id="ab" d="M422.033 1021.618a3.607 3.607 0 01-3.61-3.609v-13.86H403.74a3.608 3.608 0 010-7.215h18.294a3.61 3.61 0 013.608 3.61v17.465a3.607 3.607 0 01-3.608 3.61z"/><path id="ac" d="M367.873 1021.618a3.607 3.607 0 01-3.61-3.609v-17.466a3.61 3.61 0 013.61-3.609h17.882a3.608 3.608 0 010 7.215H371.48v13.86a3.606 3.606 0 01-3.607 3.61z"/><path id="ad" d="M385.754 1058.312h-17.882a3.608 3.608 0 01-3.609-3.608v-18.708a3.609 3.609 0 117.216 0v15.1h14.275a3.605 3.605 0 013.607 3.608 3.607 3.607 0 01-3.607 3.608z"/><path id="ae" d="M422.033 1058.312h-18.294a3.607 3.607 0 01-3.607-3.608 3.605 3.605 0 013.607-3.607h14.685v-15.101a3.609 3.609 0 117.217 0v18.707a3.608 3.608 0 01-3.608 3.609z"/><path id="af" d="M394.954 1036.537c-6.94 0-12.583-5.642-12.583-12.582 0-6.934 5.644-12.582 12.583-12.582 6.938 0 12.58 5.648 12.58 12.582 0 6.94-5.642 12.582-12.58 12.582zm0-17.945a5.372 5.372 0 00-5.368 5.363 5.372 5.372 0 005.368 5.366 5.37 5.37 0 005.366-5.366 5.37 5.37 0 00-5.366-5.363z"/><path id="ag" d="M411.884 1057.338a3.606 3.606 0 01-3.607-3.61v-13.805a.506.506 0 00-.505-.507h-25.638a.507.507 0 00-.506.507v13.806a3.607 3.607 0 11-7.215 0v-13.806c0-4.257 3.463-7.723 7.721-7.723h25.638c4.258 0 7.721 3.466 7.721 7.723v13.806a3.608 3.608 0 01-3.609 3.609z"/><path id="ah" d="M339.859 1013.699H285.59a3.606 3.606 0 01-3.608-3.606v-34.639a3.608 3.608 0 013.608-3.608h54.269a3.607 3.607 0 013.608 3.608v34.639a3.605 3.605 0 01-3.608 3.606zm-50.659-7.219v-27.42h47.05v27.42z"/><path id="ai" d="M339.859 1058.851H285.59a3.607 3.607 0 01-3.608-3.607v-34.639a3.609 3.609 0 013.608-3.609h54.269a3.608 3.608 0 013.608 3.609v34.639a3.606 3.606 0 01-3.608 3.607zm-50.659-7.221v-27.42h47.05v27.42z"/></defs><use fill="#fff" xlink:href="#aa" transform="translate(-268 -943)"/><use fill="#fff" xlink:href="#ab" transform="translate(-268 -943)"/><use fill="#fff" xlink:href="#ac" transform="translate(-268 -943)"/><use fill="#fff" xlink:href="#ad" transform="translate(-268 -943)"/><use fill="#fff" xlink:href="#ae" transform="translate(-268 -943)"/><use fill="#fff" xlink:href="#af" transform="translate(-268 -943)"/><use fill="#fff" xlink:href="#ag" transform="translate(-268 -943)"/><use fill="#fff" xlink:href="#ah" transform="translate(-268 -943)"/><use fill="#fff" xlink:href="#ai" transform="translate(-268 -943)"/></svg><svg viewBox="0 0 185 184" id="bonus2" xmlns="http://www.w3.org/2000/svg"><defs><path id="ba" d="M816.756 967.17a3.605 3.605 0 01-3.607-3.605V943.15h-21.553a3.61 3.61 0 010-7.218h25.16a3.608 3.608 0 013.608 3.608v24.025a3.606 3.606 0 01-3.608 3.606z"/><path id="bb" d="M742.269 967.17a3.605 3.605 0 01-3.607-3.605V939.54a3.607 3.607 0 013.607-3.608h24.593a3.609 3.609 0 010 7.218h-20.986v20.415a3.605 3.605 0 01-3.607 3.606z"/><path id="bc" d="M766.861 1017.639h-24.593a3.606 3.606 0 01-3.607-3.61v-25.73a3.61 3.61 0 013.607-3.607 3.61 3.61 0 013.608 3.608v22.123h20.985a3.608 3.608 0 010 7.216z"/><path id="bd" d="M816.756 1017.639h-25.16a3.608 3.608 0 110-7.216h21.553V988.3a3.61 3.61 0 013.607-3.608 3.61 3.61 0 013.608 3.608v25.729a3.607 3.607 0 01-3.608 3.61z"/><path id="be" d="M779.513 987.695c-8.794 0-15.95-7.157-15.95-15.953 0-8.793 7.156-15.95 15.95-15.95 8.796 0 15.95 7.157 15.95 15.95 0 8.796-7.154 15.953-15.95 15.953zm0-24.687c-4.815 0-8.733 3.92-8.733 8.734 0 4.816 3.918 8.734 8.733 8.734 4.818 0 8.736-3.918 8.736-8.734 0-4.813-3.918-8.734-8.736-8.734z"/><path id="bf" d="M802.799 1016.296a3.605 3.605 0 01-3.606-3.605V993.7c0-1.133-.92-2.051-2.05-2.051h-35.26c-1.13 0-2.05.918-2.05 2.052v18.989a3.606 3.606 0 01-3.606 3.605 3.607 3.607 0 01-3.61-3.605V993.7c0-5.108 4.157-9.27 9.266-9.27h35.26c5.109 0 9.263 4.162 9.263 9.27v18.99a3.605 3.605 0 01-3.607 3.605z"/><path id="bg" d="M714.877 1017.718h-74.634a3.543 3.543 0 01-3.543-3.541V939.54a3.545 3.545 0 013.543-3.544h74.634a3.546 3.546 0 013.543 3.544v74.637a3.544 3.544 0 01-3.543 3.541zm-71.097-7.078v-67.55h67.55v67.55z"/><path id="bh" d="M714.877 1119.156h-74.634a3.545 3.545 0 01-3.543-3.544v-74.636a3.542 3.542 0 013.543-3.541h74.634a3.542 3.542 0 013.543 3.541v74.636a3.545 3.545 0 01-3.543 3.544zm-71.097-7.086v-67.55h67.55v67.55z"/><path id="bi" d="M816.905 1119.156h-74.637a3.546 3.546 0 01-3.544-3.544v-74.636a3.543 3.543 0 013.544-3.541h74.637a3.543 3.543 0 013.542 3.541v74.636a3.546 3.546 0 01-3.542 3.544zm-71.095-7.086v-67.55h67.55v67.55z"/></defs><use fill="#fff" xlink:href="#ba" transform="translate(-636 -936)"/><use fill="#fff" xlink:href="#bb" transform="translate(-636 -936)"/><use fill="#fff" xlink:href="#bc" transform="translate(-636 -936)"/><use fill="#fff" xlink:href="#bd" transform="translate(-636 -936)"/><use fill="#fff" xlink:href="#be" transform="translate(-636 -936)"/><use fill="#fff" xlink:href="#bf" transform="translate(-636 -936)"/><use fill="#fff" xlink:href="#bg" transform="translate(-636 -936)"/><use fill="#fff" xlink:href="#bh" transform="translate(-636 -936)"/><use fill="#fff" xlink:href="#bi" transform="translate(-636 -936)"/></svg><svg viewBox="0 0 209 160" id="bonus3" xmlns="http://www.w3.org/2000/svg"><defs><path id="ca" d="M1119.886 1027.165c-14.413.004-19.548-33.684-19.6-34.03-1.116-7.554-1.39-16.397-1.458-20.383h-10.263a3.607 3.607 0 110-7.216h13.85a3.609 3.609 0 013.609 3.607v1.484c0 .12.018 12.093 1.402 21.456 1.68 11.396 7.608 27.866 12.475 27.866.07 0 .144-.004.216-.012a3.609 3.609 0 01.735 7.18 9.9 9.9 0 01-.966.048z"/><path id="cb" d="M1110.46 1025.602c-3.133 0-8.28-1.157-11.127-5.588-.645-1.018-15.43-24.694-15.43-48.59v-9.722h-19.034v9.722c0 10.24-3.538 25.243-9.016 38.213a100.69 100.69 0 01-2.506 5.496 3.611 3.611 0 01-4.837 1.63 3.607 3.607 0 01-1.629-4.835 93.221 93.221 0 002.325-5.097c5.132-12.154 8.448-26.051 8.448-35.407v-13.332a3.609 3.609 0 013.608-3.61h26.25a3.608 3.608 0 013.607 3.61v13.332c0 21.776 14.158 44.487 14.3 44.713 1.554 2.414 5.327 2.236 5.37 2.236 2.019-.087 3.689 1.397 3.816 3.373a3.591 3.591 0 01-3.324 3.823c-.254.02-.528.033-.821.033z"/><path id="cc" d="M1200.676 1091.549a3.604 3.604 0 01-3.607-3.605V979.729h-94.072a3.61 3.61 0 010-7.219h97.679a3.61 3.61 0 013.606 3.61v111.824a3.605 3.605 0 01-3.606 3.605z"/><path id="cd" d="M1133.658 1043.847a3.608 3.608 0 01-3.607-3.61v-47.28c0-1.162-.696-2.031-1.319-2.031-.618 0-1.312.869-1.312 2.03v47.28a3.608 3.608 0 01-7.215 0v-47.28c0-5.096 3.824-9.244 8.527-9.244 4.706 0 8.536 4.148 8.536 9.245v47.28a3.61 3.61 0 01-3.61 3.61z"/><path id="ce" d="M1156.51 1043.847a3.608 3.608 0 01-3.607-3.61v-47.28c0-1.162-.697-2.031-1.321-2.031-.618 0-1.311.869-1.311 2.03v47.28a3.609 3.609 0 01-7.216 0v-47.28c0-5.096 3.825-9.244 8.527-9.244 4.705 0 8.535 4.148 8.535 9.245v47.28a3.608 3.608 0 01-3.607 3.61z"/><path id="cf" d="M1180.564 1043.847a3.607 3.607 0 01-3.608-3.61v-47.28c0-1.162-.695-2.031-1.32-2.031-.617 0-1.311.869-1.311 2.03v47.28a3.609 3.609 0 11-7.216 0v-47.28c0-5.096 3.825-9.244 8.528-9.244 4.704 0 8.533 4.148 8.533 9.245v47.28a3.608 3.608 0 01-3.605 3.61z"/><path id="cg" d="M1060.943 1088.138h-60.926a3.607 3.607 0 01-3.608-3.606v-61.26a3.608 3.608 0 013.608-3.608h30.25l2.277-81.6a3.607 3.607 0 013.606-3.51h9.913a3.614 3.614 0 013.608 3.498l2.377 75.364a3.612 3.612 0 01-3.493 3.722c-2.018.089-3.657-1.502-3.72-3.491l-2.268-71.875h-2.908l-2.278 81.6a3.609 3.609 0 01-3.607 3.51h-30.149v54.04h57.318a3.608 3.608 0 010 7.215z"/><path id="ch" d="M1190.703 1093.269c-5.967.004-11.893-1.254-17.704-3.762-24.57-10.597-34.115-6.576-43.35-2.688-4.647 1.958-9.455 3.983-15.713 3.983-8.245 0-14.288-2.655-19.617-5.002-8.869-3.9-15.875-6.98-31.606 1.876a3.613 3.613 0 01-4.914-1.377 3.606 3.606 0 011.374-4.914c18.874-10.62 28.623-6.338 38.051-2.19 5.134 2.258 9.986 4.389 16.712 4.389 4.801 0 8.561-1.581 12.914-3.414 10.13-4.27 21.615-9.102 49.008 2.71 7.56 3.263 15.322 4.01 23.08 2.223a3.62 3.62 0 014.326 2.706 3.607 3.607 0 01-2.706 4.324 43.687 43.687 0 01-9.855 1.136z"/></defs><use fill="#fff" xlink:href="#ca" transform="translate(-996 -934)"/><use fill="#fff" xlink:href="#cb" transform="translate(-996 -934)"/><use fill="#fff" xlink:href="#cc" transform="translate(-996 -934)"/><use fill="#fff" xlink:href="#cd" transform="translate(-996 -934)"/><use fill="#fff" xlink:href="#ce" transform="translate(-996 -934)"/><use fill="#fff" xlink:href="#cf" transform="translate(-996 -934)"/><use fill="#fff" xlink:href="#cg" transform="translate(-996 -934)"/><use fill="#fff" xlink:href="#ch" transform="translate(-996 -934)"/></svg><svg viewBox="0 0 175 177" id="bonus4" xmlns="http://www.w3.org/2000/svg"><defs><path id="da" d="M1531.404 1044.186c-21.398 0-38.287-6.63-50.215-19.712-22.908-25.128-19.13-64.722-18.96-66.4a3.612 3.612 0 013.588-3.237h30.294a3.61 3.61 0 010 7.217h-26.895c-.353 9.668.163 38.782 17.334 57.587 10.497 11.498 25.586 17.326 44.862 17.326.321 0 .642-.004.967-.007h.038a3.61 3.61 0 013.608 3.575 3.616 3.616 0 01-3.573 3.644c-.35 0-.7.006-1.048.006z"/><path id="db" d="M1579.201 1100.264a3.609 3.609 0 01-3.594-3.963c.177-1.831.082-4.068-.19-5.075-5.312-2.007-13.758-4.063-13.846-4.086a3.601 3.601 0 01-2.605-2.46c-1.928-6.36-5.16-17.431-5.16-20.077 0-.91-.037-1.926-.08-3.186a247.882 247.882 0 01-.174-9.33 3.609 3.609 0 013.61-3.606c1.857 0 3.187-.321 3.75-.905.977-1.018.853-4.097.741-6.812a77.477 77.477 0 01-.085-3.2 3.605 3.605 0 012.508-3.435c30.203-9.667 33.437-67.135 33.765-82.09h-97.84c.332 14.955 3.59 72.435 33.766 82.09a3.604 3.604 0 012.508 3.436c0 1.062-.044 2.14-.085 3.199-.11 2.715-.238 5.794.74 6.812.558.584 1.89.905 3.75.905a3.609 3.609 0 013.61 3.606c0 4.267-.102 7.194-.175 9.33-.044 1.26-.08 2.28-.08 3.186 0 2.646-3.23 13.718-5.16 20.077a3.606 3.606 0 01-2.606 2.46c-.088.023-8.546 2.079-13.844 4.086-.27 1.007-.369 3.244-.188 5.075a3.614 3.614 0 01-3.238 3.942c-1.94.192-3.745-1.245-3.944-3.23-.38-3.813-.369-10.476 4.008-12.222 4.168-1.667 10.33-3.34 13.492-4.157 2.078-6.982 4.171-14.636 4.265-16.096 0-.913.035-2.007.083-3.367.05-1.484.114-3.362.147-5.811-2.217-.46-3.977-1.38-5.326-2.785-3.108-3.241-2.917-7.95-2.746-12.105l.018-.403c-37.05-15.111-36.293-88.507-36.243-91.693a3.606 3.606 0 013.608-3.548h105.118c1.97 0 3.574 1.58 3.607 3.546.052 3.188.808 76.584-36.24 91.695.004.135.01.267.016.403.171 4.154.363 8.864-2.746 12.105-1.35 1.407-3.108 2.326-5.325 2.785.033 2.449.098 4.327.146 5.81.045 1.36.083 2.455.083 3.433.095 1.4 2.185 9.049 4.267 16.03 3.157.818 9.322 2.49 13.493 4.16 4.374 1.744 4.39 8.407 4.007 12.22a3.61 3.61 0 01-3.586 3.25z"/><path id="dc" d="M1597.473 1120.54h-97.105a3.604 3.604 0 01-3.606-3.609c0-14.413 12.752-22.067 13.297-22.384a3.616 3.616 0 011.825-.495h15.776a3.604 3.604 0 013.606 3.606 3.605 3.605 0 01-3.606 3.607h-14.69c-1.934 1.377-7.092 5.575-8.584 12.06h89.075c-1.48-6.533-6.634-10.692-8.581-12.06h-14.698a3.607 3.607 0 110-7.213h15.775c.642 0 1.272.171 1.826.495.542.317 13.296 7.971 13.296 22.384a3.604 3.604 0 01-3.606 3.608z"/><path id="dd" d="M1566.435 1044.186c-.347 0-.695-.006-1.048-.006a3.613 3.613 0 01-3.571-3.645 3.607 3.607 0 013.606-3.575h.038c19.682.19 35.16-5.629 45.834-17.32 17.168-18.805 17.68-47.919 17.33-57.587h-26.891a3.609 3.609 0 010-7.217h30.29a3.611 3.611 0 013.59 3.238c.17 1.677 3.947 41.271-18.961 66.4-11.925 13.079-28.817 19.708-50.217 19.712z"/></defs><use fill="#fff" xlink:href="#da" transform="translate(-1461 -944)"/><use fill="#fff" xlink:href="#db" transform="translate(-1461 -944)"/><use fill="#fff" xlink:href="#dc" transform="translate(-1461 -944)"/><use fill="#fff" xlink:href="#dd" transform="translate(-1461 -944)"/></svg></svg>