<?xml version="1.0" encoding="utf-8"?><svg xmlns="http://www.w3.org/2000/svg" xmlns:xlink="http://www.w3.org/1999/xlink" width="172" height="171" viewBox="0 0 172 171"><defs><path id="aa" d="M272.465 1113.848a3.59 3.59 0 01-2.056-.644 3.598 3.598 0 01-1.55-2.962V955.93c0-1.258.66-2.433 1.741-3.084 1.287-.78 31.974-18.764 82.118-.545.014-.009.03-.014.045-.02 38.84-19.642 82.955-.9 84.814-.092a3.607 3.607 0 012.171 3.31v154.743a3.599 3.599 0 01-1.634 3.017 3.604 3.604 0 01-3.42.287c-.332-.142-34.128-14.422-78.175.123a3.658 3.658 0 01-2.126.041c-45.222-12.982-80.315-.218-80.665-.089a3.58 3.58 0 01-1.263.227zm40.45-13.238c12.307 0 26.722 1.478 42.4 5.858 36.593-11.769 65.861-5.027 77.217-1.377v-147.13c-9.138-3.39-45.373-14.989-76.51.755-.09.046-.182.087-.274.123v131.465a3.608 3.608 0 11-7.216 0V958.471c-39.263-13.69-65.634-3.57-72.459-.34v147.198c6.657-1.858 19.704-4.719 36.841-4.719z"/><path id="ab" d="M422.033 1021.618a3.607 3.607 0 01-3.61-3.609v-13.86H403.74a3.608 3.608 0 010-7.215h18.294a3.61 3.61 0 013.608 3.61v17.465a3.607 3.607 0 01-3.608 3.61z"/><path id="ac" d="M367.873 1021.618a3.607 3.607 0 01-3.61-3.609v-17.466a3.61 3.61 0 013.61-3.609h17.882a3.608 3.608 0 010 7.215H371.48v13.86a3.606 3.606 0 01-3.607 3.61z"/><path id="ad" d="M385.754 1058.312h-17.882a3.608 3.608 0 01-3.609-3.608v-18.708a3.609 3.609 0 117.216 0v15.1h14.275a3.605 3.605 0 013.607 3.608 3.607 3.607 0 01-3.607 3.608z"/><path id="ae" d="M422.033 1058.312h-18.294a3.607 3.607 0 01-3.607-3.608 3.605 3.605 0 013.607-3.607h14.685v-15.101a3.609 3.609 0 117.217 0v18.707a3.608 3.608 0 01-3.608 3.609z"/><path id="af" d="M394.954 1036.537c-6.94 0-12.583-5.642-12.583-12.582 0-6.934 5.644-12.582 12.583-12.582 6.938 0 12.58 5.648 12.58 12.582 0 6.94-5.642 12.582-12.58 12.582zm0-17.945a5.372 5.372 0 00-5.368 5.363 5.372 5.372 0 005.368 5.366 5.37 5.37 0 005.366-5.366 5.37 5.37 0 00-5.366-5.363z"/><path id="ag" d="M411.884 1057.338a3.606 3.606 0 01-3.607-3.61v-13.805a.506.506 0 00-.505-.507h-25.638a.507.507 0 00-.506.507v13.806a3.607 3.607 0 11-7.215 0v-13.806c0-4.257 3.463-7.723 7.721-7.723h25.638c4.258 0 7.721 3.466 7.721 7.723v13.806a3.608 3.608 0 01-3.609 3.609z"/><path id="ah" d="M339.859 1013.699H285.59a3.606 3.606 0 01-3.608-3.606v-34.639a3.608 3.608 0 013.608-3.608h54.269a3.607 3.607 0 013.608 3.608v34.639a3.605 3.605 0 01-3.608 3.606zm-50.659-7.219v-27.42h47.05v27.42z"/><path id="ai" d="M339.859 1058.851H285.59a3.607 3.607 0 01-3.608-3.607v-34.639a3.609 3.609 0 013.608-3.609h54.269a3.608 3.608 0 013.608 3.609v34.639a3.606 3.606 0 01-3.608 3.607zm-50.659-7.221v-27.42h47.05v27.42z"/></defs><use fill="#fff" xlink:href="#aa" transform="translate(-268 -943)"/><use fill="#fff" xlink:href="#ab" transform="translate(-268 -943)"/><use fill="#fff" xlink:href="#ac" transform="translate(-268 -943)"/><use fill="#fff" xlink:href="#ad" transform="translate(-268 -943)"/><use fill="#fff" xlink:href="#ae" transform="translate(-268 -943)"/><use fill="#fff" xlink:href="#af" transform="translate(-268 -943)"/><use fill="#fff" xlink:href="#ag" transform="translate(-268 -943)"/><use fill="#fff" xlink:href="#ah" transform="translate(-268 -943)"/><use fill="#fff" xlink:href="#ai" transform="translate(-268 -943)"/></svg>